<svg width="32" height="32" viewBox="0 0 32 32" fill="none" xmlns="http://www.w3.org/2000/svg">
<path opacity="0.2" d="M16.5146 5.01172C18.4026 5.10007 20.224 5.67416 21.8105 6.66113L21.7324 6.73242L18.8623 9.60156C18.0651 9.24484 17.2019 9.03803 16.3164 8.99805L16 8.99121C14.1411 8.99121 12.3584 9.72953 11.0439 11.0439C9.72953 12.3584 8.99121 14.1411 8.99121 16L8.99805 16.3164C9.06926 17.8937 9.67142 19.3993 10.7031 20.5898C10.884 20.7985 10.8857 21.1143 10.6904 21.3096L8.5752 23.4248L8.49707 23.4883C8.33067 23.5983 8.11354 23.5981 7.95215 23.4834L7.87598 23.417C6.02961 21.3948 5 18.7503 5 16C5 13.0826 6.15878 10.2846 8.22168 8.22168C10.2846 6.15878 13.0826 5 16 5L16.5146 5.01172Z" fill="#3A3A38"/>
<path opacity="0.4" fill-rule="evenodd" clip-rule="evenodd" d="M25.3385 10.1885C25.6556 10.698 25.933 11.2331 26.1637 11.79C26.7164 13.1245 27.0006 14.5556 27.0006 16C27.0006 17.4445 26.7164 18.8754 26.1637 20.21L25.9703 20.6475C25.4989 21.6587 24.8768 22.593 24.1246 23.417L24.0484 23.4834C23.8872 23.598 23.6699 23.5981 23.5035 23.4883L23.4254 23.4248L21.3053 21.3047C21.1106 21.1095 21.1121 20.7945 21.2926 20.5859C21.7225 20.0898 22.0813 19.535 22.357 18.9385L22.4703 18.6797C22.7781 17.9365 22.9552 17.1464 22.9947 16.3447L23.0035 16C23.0035 15.1955 22.8647 14.3975 22.5943 13.6416L22.4703 13.3203C22.4456 13.2606 22.4186 13.2015 22.3922 13.1426L24.6119 10.9219L25.2682 10.2676C25.2932 10.2425 25.3147 10.2143 25.3385 10.1885Z" fill="#3A3A38"/>
<path fill-rule="evenodd" clip-rule="evenodd" d="M16 2C23.732 2 30 8.26801 30 16C30 23.732 23.732 30 16 30C8.26801 30 2 23.732 2 16C2 8.26801 8.26801 2 16 2ZM16 5C13.0826 5 10.2846 6.15878 8.22168 8.22168C6.15878 10.2846 5 13.0826 5 16C5 18.7503 6.02961 21.3948 7.87598 23.417L7.95215 23.4834C8.11354 23.5981 8.33067 23.5983 8.49707 23.4883L8.5752 23.4248L10.6904 21.3096C10.8857 21.1143 10.884 20.7985 10.7031 20.5898C9.67142 19.3993 9.06926 17.8937 8.99805 16.3164L8.99121 16C8.99121 14.1411 9.72953 12.3584 11.0439 11.0439C12.3584 9.72953 14.1411 8.99121 16 8.99121L16.3164 8.99805C17.2019 9.03803 18.0651 9.24484 18.8623 9.60156L21.7324 6.73242L21.8105 6.66113C20.224 5.67416 18.4026 5.10007 16.5146 5.01172L16 5ZM25.2686 10.2676L24.6123 10.9219L22.3926 13.1426C22.4189 13.2015 22.446 13.2606 22.4707 13.3203L22.5947 13.6416C22.865 14.3975 23.0039 15.1955 23.0039 16L22.9951 16.3447C22.9556 17.1464 22.7785 17.9365 22.4707 18.6797L22.3574 18.9385C22.0817 19.5349 21.7228 20.0898 21.293 20.5859C21.1125 20.7945 21.111 21.1095 21.3057 21.3047L23.4258 23.4248L23.5039 23.4883C23.6702 23.5979 23.8877 23.598 24.0488 23.4834L24.125 23.417C24.8771 22.5931 25.4993 21.6587 25.9707 20.6475L26.1641 20.21C26.7168 18.8755 27.001 17.4444 27.001 16C27.001 14.5556 26.7168 13.1245 26.1641 11.79C25.9334 11.2331 25.6559 10.6979 25.3389 10.1885C25.3152 10.2142 25.2935 10.2426 25.2686 10.2676ZM23.8535 8.14648C23.6583 7.95122 23.3417 7.95122 23.1465 8.14648L17.0137 14.2783C16.7162 14.1028 16.3704 14 16 14C14.8954 14 14 14.8954 14 16C14 17.1046 14.8954 18 16 18C17.1046 18 18 17.1046 18 16C18 15.6291 17.8967 15.2831 17.7207 14.9854L23.8535 8.85352C24.0488 8.65827 24.0487 8.34175 23.8535 8.14648Z" fill="#3A3A38"/>
</svg>
